<svg width="1108" height="1093" viewBox="0 0 1108 1093" fill="none" xmlns="http://www.w3.org/2000/svg">
<path d="M550.938 635.418C566.707 675.135 582.552 714.776 598.321 754.493C598.859 756.106 599.782 758.488 601.167 761.484C604.551 768.935 610.936 779.691 622.089 789.217C624.32 791.137 626.781 792.981 629.397 794.748C632.858 797.052 636.012 798.743 637.242 799.357C637.242 799.357 637.242 799.357 637.319 799.357C639.627 800.509 641.858 801.508 644.165 802.43C645.165 802.814 646.088 803.121 647.088 803.506C648.242 803.89 649.473 804.351 650.626 804.658C651.857 805.042 653.088 805.349 654.319 805.657C654.934 805.81 655.549 805.964 656.165 806.118C666.318 808.422 674.625 808.269 678.395 808.115C647.319 754.954 616.243 701.716 585.168 648.555C573.707 644.176 562.245 639.797 550.861 635.418H550.938Z" fill="#00CFF2"/>
<path d="M660.475 687.891C650.629 679.21 637.091 669.146 619.399 660.85C615.476 658.929 611.169 657.085 606.4 655.318C602.785 653.936 599.323 652.86 596.016 651.861C596.708 653.014 597.323 654.166 598.016 655.318C598.554 656.24 599.169 657.316 599.862 658.545C600.4 659.544 601.015 660.542 601.554 661.541C602.785 663.692 604.169 666.073 605.784 668.839C607.4 671.682 609.015 674.524 610.707 677.366C614.323 683.666 618.399 690.733 622.784 698.339C631.168 712.858 639.475 727.378 647.86 741.897C651.629 748.427 656.244 754.496 661.705 759.72C663.551 761.487 665.397 763.1 667.397 764.637C668.013 765.098 668.705 765.635 669.397 766.096C671.936 767.94 674.551 769.63 677.166 771.013C677.858 771.397 678.474 771.628 679.166 772.012C681.089 773.01 683.012 774.009 684.858 774.854C685.781 775.238 686.627 775.469 687.55 775.853C689.166 776.467 690.781 777.159 692.396 777.62C693.396 777.927 694.319 778.158 695.319 778.388C696.704 778.772 698.165 779.233 699.55 779.54C700.55 779.771 701.473 779.924 702.396 780.078C703.627 780.309 704.934 780.616 706.165 780.769C707.242 780.923 708.088 781 709.088 781.077C710.088 781.154 711.165 781.307 712.088 781.384C713.088 781.461 713.934 781.461 714.857 781.538C715.626 781.538 716.472 781.615 717.088 781.691C718.011 781.691 718.78 781.691 719.549 781.691C720.011 781.691 720.626 781.691 721.01 781.691C721.01 781.691 721.087 781.691 721.164 781.691L660.551 687.814L660.475 687.891Z" fill="#00CFF2"/>
<path d="M505.623 445.44C505.623 445.44 505.623 445.44 505.7 445.517C506.315 446.285 506.853 446.976 508.392 448.897C543.006 427.387 573.158 415.249 594.465 408.181C639.233 393.277 733.844 361.78 752.766 356.556C755.689 355.788 763.766 353.637 770.458 346.492C770.458 346.492 770.458 346.492 770.535 346.416C779.611 336.659 785.765 326.058 790.072 315.763C790.072 315.763 790.303 315.149 790.457 314.842C790.842 313.92 791.149 313.075 791.457 312.23C791.457 312.076 791.611 311.922 791.611 311.769C792.072 310.54 792.534 309.31 792.919 308.081C792.919 307.928 792.995 307.774 793.072 307.62C793.457 306.391 793.842 305.162 794.226 304.01C794.303 303.626 794.457 303.318 794.534 302.934C794.842 301.782 795.149 300.706 795.457 299.631C795.457 299.323 795.611 299.093 795.688 298.786C795.688 298.632 795.688 298.478 795.765 298.325C795.995 297.557 796.149 296.712 796.303 295.943C796.38 295.482 796.534 294.945 796.611 294.484C796.765 293.715 796.918 292.87 797.072 292.102C797.149 291.641 797.226 291.18 797.303 290.796C797.457 289.951 797.611 289.183 797.764 288.338C797.764 287.954 797.918 287.646 797.918 287.262C798.072 286.11 798.303 285.034 798.38 283.959C767.535 296.942 736.69 309.925 705.768 322.831C674.923 335.814 644.078 348.797 613.157 361.703C608.311 363.701 602.696 366.236 596.311 369.386C595.081 370 593.773 370.692 592.465 371.306C579.235 378.067 563.466 387.516 546.39 400.729C538.929 406.491 532.237 412.253 526.314 417.784C518.391 425.082 511.853 431.996 506.546 437.911C505.238 439.371 504.007 440.83 502.854 442.136C503.392 442.828 503.853 443.366 504.161 443.827C504.7 444.441 505.007 444.902 505.392 445.286L505.623 445.44Z" fill="#00CFF2"/>
<path d="M648.318 401.577C642.857 402.806 637.549 404.112 632.395 405.495C628.549 406.494 624.934 407.569 621.319 408.568C620.473 408.798 619.627 409.106 618.781 409.336C614.935 410.489 611.166 411.641 607.704 412.793C607.166 412.947 606.704 413.101 606.243 413.254C604.781 413.715 603.32 414.176 602.012 414.637C600.166 415.252 598.474 415.866 596.782 416.481C596.012 416.711 595.243 417.018 594.551 417.249C590.936 418.555 587.705 419.784 584.705 420.936C584.09 421.167 583.474 421.397 582.859 421.628C579.782 422.857 577.013 424.009 574.782 424.931C574.475 425.085 574.09 425.238 573.782 425.392C573.552 425.469 573.398 425.546 573.244 425.623C571.09 426.544 568.552 427.62 565.475 429.003C564.475 429.464 563.552 429.848 562.552 430.309C561.168 430.923 559.783 431.615 558.168 432.306C537.322 442.063 521.862 449.361 508.324 458.81C503.478 451.589 498.555 444.444 493.709 437.223C490.632 432.613 486.017 425.085 482.171 415.021C477.017 401.5 478.171 396.276 472.787 384.83C466.633 371.847 458.941 364.549 456.71 362.398C455.864 361.553 454.557 360.477 453.095 359.325C452.711 359.017 452.326 358.71 452.018 358.403C451.172 357.788 450.249 357.097 449.249 356.406C447.403 355.1 445.48 353.87 443.634 352.872C443.634 352.872 443.634 352.872 443.557 352.872C442.942 352.488 441.711 351.873 440.019 351.028C439.403 350.721 438.865 350.49 438.25 350.183C437.788 350.029 437.403 349.799 436.942 349.568C432.481 347.648 428.327 346.419 425.096 345.65C425.096 345.65 425.019 345.65 424.942 345.65C424.25 345.497 423.404 345.266 422.404 345.113C421.404 344.882 420.481 344.729 419.635 344.575C419.558 344.575 419.481 344.575 419.404 344.575C417.635 344.268 416.25 344.114 415.481 344.037C415.174 344.037 414.097 343.883 412.558 343.807C410.097 343.653 407.405 343.576 404.559 343.807C403.328 343.807 402.097 343.96 400.867 344.114C400.482 344.114 400.174 344.191 399.79 344.268C399.328 344.268 398.79 344.344 398.328 344.421C397.021 344.652 395.713 344.882 394.713 345.113C394.559 345.113 394.482 345.113 394.328 345.189C393.328 345.42 392.713 345.574 392.636 345.574C392.636 345.574 390.559 346.111 388.405 346.88C364.637 355.1 348.023 366.085 348.023 366.085C346.023 367.468 342.946 369.542 339.254 372.308C317.331 369.619 288.487 368.774 255.642 375.15C242.565 377.685 230.643 381.066 220.182 384.753C229.489 383.754 239.412 383.14 249.873 382.986C285.025 382.525 315.562 387.98 340.177 394.663C347.638 398.888 375.868 416.02 385.175 450.129C388.713 463.035 388.482 474.559 387.482 482.855C386.944 493.073 383.944 582.648 454.249 639.189C495.555 672.376 540.784 677.139 559.014 677.985C555.552 668.919 552.091 659.778 548.63 650.713C546.091 644.106 543.63 637.576 541.092 630.969C535.707 628.664 529.861 625.745 523.785 622.288C521.708 621.136 519.708 619.907 517.554 618.524C513.4 615.912 509.093 612.916 504.785 609.612C500.478 606.309 496.17 602.698 491.94 598.627C468.094 576.041 454.634 549.845 446.942 526.951C445.019 521.267 443.48 515.735 442.173 510.511C440.25 502.676 439.019 495.608 438.25 489.616C437.48 483.624 437.019 478.707 436.788 475.173C435.711 468.566 427.404 423.318 387.021 401.654C370.637 392.819 354.791 391.129 344.638 390.976C345.561 390.361 346.33 389.746 347.407 389.209C350.792 387.442 353.868 386.52 356.099 386.059C356.253 386.059 356.33 386.059 356.484 386.136C364.868 386.904 373.945 388.901 383.175 392.819C427.712 412.025 440.788 463.035 443.019 472.331C443.711 483.777 445.788 500.371 452.095 519.269C455.633 529.871 474.325 585.413 524.708 614.299C546.168 626.59 578.09 637.038 590.705 641.11C597.551 643.338 611.166 647.563 627.934 656.474C632.934 659.086 637.395 661.775 641.318 664.156C642.087 664.617 642.933 665.155 643.78 665.693C645.164 666.615 646.549 667.46 647.779 668.305C648.164 668.535 648.472 668.766 648.779 668.996C650.164 669.918 651.472 670.917 652.625 671.685C652.548 671.531 652.471 671.378 652.318 671.224C628.857 636.577 605.397 601.93 581.936 567.206C587.32 567.206 593.089 566.976 599.089 566.054C616.781 563.365 630.396 556.759 639.241 551.381C635.934 550.382 632.626 549.307 629.242 548.231C619.165 545.005 608.858 541.471 598.243 537.63C590.705 534.864 583.397 532.099 576.244 529.256C574.09 528.411 571.783 527.72 569.552 527.105C582.705 529.103 592.397 531.484 595.474 532.329C614.704 537.476 615.396 540.088 627.088 541.548C642.395 543.391 654.318 540.472 658.01 539.55C665.625 537.553 672.163 534.557 677.624 531.33C677.932 531.177 678.163 530.946 678.47 530.793C679.47 530.178 680.47 529.563 681.393 528.949C681.932 528.642 682.47 528.257 682.932 527.95C683.855 527.259 684.778 526.644 685.624 525.953C686.009 525.645 686.47 525.338 686.855 525.031C687.778 524.34 688.547 523.648 689.316 523.034C689.624 522.803 689.932 522.573 690.162 522.342C691.162 521.497 692.085 520.652 692.854 519.884C686.009 519.423 675.471 518.501 662.625 516.58C638.703 513.047 625.627 508.821 614.089 506.133C617.473 506.363 620.857 506.594 624.242 507.131C644.549 509.974 661.471 510.665 673.778 510.665C696.316 510.665 703.854 508.514 707.7 507.131C718.315 503.444 726.699 497.375 733.161 490.999C733.237 490.922 733.314 490.845 733.468 490.691C734.237 489.923 734.93 489.155 735.699 488.387C735.93 488.156 736.084 487.926 736.314 487.695C736.853 487.081 737.391 486.466 737.93 485.851C738.16 485.544 738.391 485.314 738.622 485.006C739.083 484.469 739.545 483.854 740.006 483.316C740.237 483.009 740.468 482.702 740.699 482.471C741.083 481.933 741.545 481.396 741.929 480.858C742.16 480.551 742.391 480.32 742.545 480.013C742.929 479.475 743.314 479.014 743.622 478.476C743.775 478.246 744.006 477.939 744.16 477.708C744.545 477.17 744.852 476.71 745.16 476.172C745.314 475.941 745.468 475.711 745.622 475.48C746.006 474.789 746.468 474.174 746.775 473.56C746.775 473.56 746.775 473.56 746.775 473.483C702.162 475.25 657.548 477.017 613.012 478.861C626.703 475.941 631.626 476.325 693.547 471.178C724.315 468.643 739.929 467.26 751.083 461.576C762.544 455.737 771.467 447.594 778.312 439.067C780.774 435.994 782.928 432.921 784.851 429.848C784.851 429.848 784.851 429.771 784.928 429.694C785.697 428.465 786.389 427.313 787.081 426.084C788.312 423.932 789.466 421.858 790.466 419.861C791.466 417.864 792.389 415.866 793.235 414.022C789.158 415.252 785.005 416.481 780.774 417.71C768.159 421.321 755.083 424.778 741.622 428.004C729.161 431 716.93 433.689 704.931 436.147C684.932 440.142 665.625 443.369 647.01 445.981C641.626 446.749 636.318 447.901 631.011 449.284C639.395 445.827 646.933 443.369 653.471 441.525C660.24 439.681 673.24 436.531 674.317 436.224C728.468 423.087 740.314 423.702 766.005 413.254C776.236 409.106 787.774 403.728 799.004 392.973C813.773 378.761 820.695 362.09 824.157 350.183C824.157 350.029 824.234 349.799 824.311 349.645C824.541 348.723 824.772 347.878 825.003 347.033C825.003 346.803 825.157 346.572 825.157 346.342C825.387 345.343 825.618 344.421 825.849 343.576C766.544 362.705 707.315 381.911 648.01 401.039L648.318 401.577Z" fill="#00CFF2"/>
</svg>
